<?xml version="1.0" encoding="UTF-8" standalone="no"?>
<!DOCTYPE svg PUBLIC "-//W3C//DTD SVG 1.1//EN" "http://www.w3.org/Graphics/SVG/1.1/DTD/svg11.dtd">
<svg width="100%" height="100%" viewBox="0 0 1000 1000" version="1.1" xmlns="http://www.w3.org/2000/svg" xmlns:xlink="http://www.w3.org/1999/xlink" xml:space="preserve" xmlns:serif="http://www.serif.com/" style="fill-rule:evenodd;clip-rule:evenodd;stroke-linejoin:round;stroke-miterlimit:1.41421;">
    <circle cx="500" cy="500" r="492" style="fill:rgb(65,65,65);"/>
    <g transform="matrix(0.920732,0,0,0.920732,39.6341,39.6341)">
        <circle cx="500" cy="500" r="492" style="fill:rgb(43,43,43);"/>
    </g>
    <g id="sablier" transform="matrix(0.761317,0,0,0.761317,119.342,119.342)">
        <path d="M252,400.7C252,388.393 250.044,376.165 246.205,364.472C237.495,338.275 232.834,310.26 232.834,281.166C232.834,133.713 352.547,14 500,14C647.453,14 767.166,133.713 767.166,281.166C767.166,313.25 761.498,344.021 751.11,372.531C748.513,379.599 747.185,387.071 747.185,394.601C747.138,434.773 747.138,565.635 747.138,605.561C747.138,612.998 748.453,620.377 751.021,627.356C761.481,655.887 767.166,686.702 767.166,718.834C767.166,866.287 647.453,986 500,986C352.547,986 232.834,866.287 232.834,718.834C232.834,688.49 237.904,659.32 247.242,632.127C250.346,623.133 251.93,613.684 251.93,604.169C252,562.686 252,447.418 252,400.7ZM445.808,505.388C448.295,504.785 450.046,502.559 450.046,500C450.046,497.441 448.295,495.215 445.808,494.612C350.457,470.442 279.823,383.987 279.823,281.166C279.823,159.647 378.481,60.989 500,60.989C621.519,60.989 720.177,159.647 720.177,281.166C720.177,383.671 649.977,469.909 555.072,494.387C552.49,495.025 550.677,497.341 550.677,500C550.677,502.659 552.49,504.975 555.072,505.613C649.977,530.091 720.177,616.329 720.177,718.834C720.177,840.353 621.519,939.011 500,939.011C378.481,939.011 279.823,840.353 279.823,718.834C279.823,616.013 350.457,529.558 445.808,505.388ZM296.408,454.092C293.46,450.595 288.64,449.313 284.344,450.883C280.048,452.452 277.19,456.539 277.19,461.113C277.138,482.622 277.138,510.874 277.138,533.414C277.138,538.819 280.484,543.659 285.541,545.569C290.597,547.479 296.307,546.059 299.881,542.004C309.767,530.727 320.633,520.335 332.307,510.905C335.631,508.262 337.569,504.247 337.568,500C337.568,495.753 335.631,491.738 332.307,489.095C319.277,478.57 307.254,466.846 296.408,454.092ZM722,464.265C722,459.363 718.954,454.976 714.361,453.263C709.768,451.549 704.593,452.869 701.382,456.574C691.25,468.278 680.081,479.055 668.048,488.808C664.643,491.525 662.66,495.644 662.66,500C662.66,504.356 664.643,508.475 668.048,511.192C679.484,520.461 690.14,530.656 699.903,541.661C703.37,545.585 708.904,546.955 713.802,545.101C718.699,543.247 721.939,538.556 721.939,533.32C722,511.947 722,485.214 722,464.265Z" style="fill:rgb(176,176,176);"/>
    </g>
    <g id="aiguille-heure" serif:id="aiguille heure" transform="matrix(0.761317,0,0,0.761317,119.342,119.342)">
        <path d="M488.61,269.776L488.608,269.774C488.608,269.774 497.725,260.657 508.539,249.843C531.898,226.484 557.58,205.571 585.187,187.43C585.189,187.429 585.19,187.428 585.191,187.427C587.637,185.82 590.875,186.152 592.945,188.221C595.014,190.291 595.346,193.529 593.738,195.975C593.738,195.976 593.737,195.977 593.736,195.978C575.594,223.585 554.681,249.268 531.323,272.627L516.11,287.839L516.11,639.624C516.111,659.856 520.896,678.804 529.226,695.035C532.816,702.063 539.27,707.195 546.925,709.109C554.541,711.015 561.82,713.832 568.591,717.463C572.176,719.427 575.24,722.217 577.53,725.603C580.483,729.809 585.299,733.837 591.407,736.966C593.747,738.162 595.787,739.871 597.374,741.967C597.4,741.947 597.4,741.947 597.4,741.947C600.387,745.953 605.091,748.313 610.088,748.313C610.088,748.37 610.088,748.37 610.088,748.37C620.549,748.37 630.612,746.388 640.014,742.732C645.622,738.1 652.963,733.253 661.121,730.934C668.306,725.543 674.816,719.047 680.471,711.655C683.535,707.721 688.759,706.167 693.475,707.786C698.191,709.406 701.358,713.842 701.358,718.829C701.381,718.831 701.381,718.832 701.381,718.834C701.381,829.98 611.145,920.215 500,920.215L499.349,920.214C388.503,919.863 298.619,829.763 298.619,718.834C298.619,718.832 298.619,718.831 298.619,718.829C298.62,713.833 301.793,709.389 306.518,707.767C311.243,706.144 316.476,707.701 319.547,711.642C325.536,719.484 332.489,726.317 340.191,731.893C344.902,735.327 350.976,736.289 356.518,734.481C358.217,733.941 360.015,733.429 361.919,732.954C365.66,732.004 369.577,731.98 373.329,732.884C377.495,733.851 383.793,733.394 393.16,730.492C395.352,729.816 397.641,729.503 399.934,729.565C407.539,729.795 415.928,730.489 425.176,731.751C433.836,732.924 442.565,730.15 448.958,724.192C470.262,704.255 483.889,673.767 483.89,639.624L483.89,281.166C483.89,276.72 485.694,272.692 488.61,269.776Z" style="fill:rgb(176,176,176);"/>
    </g>
    <g id="indicateur" transform="matrix(1.0221,0,0,1.0221,-11.0497,-11.0497)">
        <g transform="matrix(3.5,0,0,2,-1250,-179)">
            <path d="M502,176.5C502,175.672 501.616,175 501.143,175L498.857,175C498.384,175 498,175.672 498,176.5L498,179.5C498,180.328 498.384,181 498.857,181L501.143,181C501.616,181 502,180.328 502,179.5L502,176.5Z" style="fill:rgb(176,176,176);"/>
        </g>
        <g transform="matrix(2.14313e-16,3.5,-2,1.22465e-16,1016,-1413)">
            <path d="M502,176.5C502,175.672 501.616,175 501.143,175L498.857,175C498.384,175 498,175.672 498,176.5L498,179.5C498,180.328 498.384,181 498.857,181L501.143,181C501.616,181 502,180.328 502,179.5L502,176.5Z" style="fill:rgb(176,176,176);"/>
        </g>
        <g transform="matrix(2.14313e-16,-3.5,2,1.22465e-16,-16,2087)">
            <path d="M502,176.5C502,175.672 501.616,175 501.143,175L498.857,175C498.384,175 498,175.672 498,176.5L498,179.5C498,180.328 498.384,181 498.857,181L501.143,181C501.616,181 502,180.328 502,179.5L502,176.5Z" style="fill:rgb(176,176,176);"/>
        </g>
    </g>
</svg>
