<?xml version="1.0" encoding="UTF-8" standalone="no"?>
<!DOCTYPE svg PUBLIC "-//W3C//DTD SVG 1.1//EN" "http://www.w3.org/Graphics/SVG/1.1/DTD/svg11.dtd">
<svg width="100%" height="100%" viewBox="0 0 1000 1000" version="1.1" xmlns="http://www.w3.org/2000/svg" xmlns:xlink="http://www.w3.org/1999/xlink" xml:space="preserve" xmlns:serif="http://www.serif.com/" style="fill-rule:evenodd;clip-rule:evenodd;stroke-linejoin:round;stroke-miterlimit:1.41421;">
    <g transform="matrix(1,0,0,1,-261.472,44)">
        <path d="M541.98,822.995L541.98,892.273C541.355,892.541 540.439,892.787 539.233,893.01C538.027,893.233 536.754,893.345 535.414,893.345C532.645,893.345 530.679,892.831 529.518,891.804C528.357,890.777 527.776,889.057 527.776,886.645L527.776,822.995L504.058,822.995C503.611,822.37 503.232,821.566 502.919,820.583C502.606,819.6 502.45,818.484 502.45,817.233C502.45,815.268 502.919,813.771 503.857,812.744C504.795,811.717 506.068,811.203 507.676,811.203L565.966,811.203C566.323,811.739 566.658,812.498 566.971,813.481C567.284,814.464 567.44,815.536 567.44,816.697C567.44,820.896 565.698,822.995 562.214,822.995L541.98,822.995Z" style="fill:rgb(43,43,43);fill-rule:nonzero;"/>
        <path d="M593.838,892.273C593.213,892.541 592.342,892.787 591.225,893.01C590.108,893.233 588.835,893.345 587.406,893.345C584.815,893.345 582.895,892.854 581.644,891.871C580.393,890.888 579.768,889.236 579.768,886.913L579.768,830.231C580.483,830.052 581.398,829.829 582.515,829.561C583.632,829.293 584.905,829.159 586.334,829.159C588.925,829.159 590.823,829.65 592.029,830.633C593.235,831.616 593.838,833.313 593.838,835.725L593.838,892.273ZM578.294,810.533C578.294,808.21 579.098,806.267 580.706,804.704C582.314,803.141 584.369,802.359 586.87,802.359C589.371,802.359 591.381,803.141 592.9,804.704C594.419,806.267 595.178,808.21 595.178,810.533C595.178,812.856 594.419,814.799 592.9,816.362C591.381,817.925 589.371,818.707 586.87,818.707C584.369,818.707 582.314,817.925 580.706,816.362C579.098,814.799 578.294,812.856 578.294,810.533Z" style="fill:rgb(43,43,43);fill-rule:nonzero;"/>
        <path d="M690.988,850.599C690.988,846.668 689.894,843.787 687.705,841.956C685.516,840.125 682.546,839.209 678.794,839.209C676.293,839.209 673.903,839.678 671.625,840.616C669.347,841.554 667.27,842.827 665.394,844.435C665.573,845.15 665.707,845.909 665.796,846.713C665.885,847.517 665.93,848.321 665.93,849.125L665.93,892.273C665.305,892.541 664.411,892.787 663.25,893.01C662.089,893.233 660.883,893.345 659.632,893.345C657.041,893.345 655.121,892.854 653.87,891.871C652.619,890.888 651.994,889.236 651.994,886.913L651.994,850.599C651.994,846.668 650.877,843.787 648.644,841.956C646.411,840.125 643.418,839.209 639.666,839.209C637.165,839.209 634.797,839.611 632.564,840.415C630.331,841.219 628.455,842.112 626.936,843.095L626.936,892.273C626.311,892.541 625.44,892.787 624.323,893.01C623.206,893.233 621.978,893.345 620.638,893.345C618.047,893.345 616.127,892.854 614.876,891.871C613.625,890.888 613,889.236 613,886.913L613,842.693C613,840.638 613.402,838.986 614.206,837.735C615.01,836.484 616.35,835.234 618.226,833.983C620.817,832.286 624.077,830.856 628.008,829.695C631.939,828.534 635.914,827.953 639.934,827.953C644.133,827.953 647.907,828.534 651.257,829.695C654.607,830.856 657.354,832.554 659.498,834.787C661.999,832.822 664.97,831.191 668.409,829.896C671.848,828.601 675.846,827.953 680.402,827.953C683.886,827.953 687.147,828.377 690.184,829.226C693.221,830.075 695.834,831.415 698.023,833.246C700.212,835.077 701.931,837.378 703.182,840.147C704.433,842.916 705.058,846.222 705.058,850.063L705.058,892.273C704.343,892.541 703.428,892.787 702.311,893.01C701.194,893.233 699.966,893.345 698.626,893.345C696.035,893.345 694.115,892.854 692.864,891.871C691.613,890.888 690.988,889.236 690.988,886.913L690.988,850.599Z" style="fill:rgb(43,43,43);fill-rule:nonzero;"/>
        <path d="M734.404,868.287C735.655,873.379 738.089,877.153 741.707,879.61C745.325,882.067 749.948,883.295 755.576,883.295C759.328,883.295 762.767,882.714 765.894,881.553C769.021,880.392 771.522,879.141 773.398,877.801C775.899,879.23 777.15,881.24 777.15,883.831C777.15,885.35 776.569,886.757 775.408,888.052C774.247,889.347 772.661,890.464 770.651,891.402C768.641,892.34 766.274,893.077 763.549,893.613C760.824,894.149 757.899,894.417 754.772,894.417C749.591,894.417 744.878,893.702 740.635,892.273C736.392,890.844 732.751,888.7 729.714,885.841C726.677,882.982 724.332,879.454 722.679,875.255C721.026,871.056 720.2,866.188 720.2,860.649C720.2,855.289 721.004,850.577 722.612,846.512C724.22,842.447 726.409,839.053 729.178,836.328C731.947,833.603 735.208,831.526 738.96,830.097C742.712,828.668 746.732,827.953 751.02,827.953C755.308,827.953 759.216,828.645 762.745,830.03C766.274,831.415 769.311,833.335 771.857,835.792C774.403,838.249 776.368,841.174 777.753,844.569C779.138,847.964 779.83,851.671 779.83,855.691C779.83,857.924 779.294,859.555 778.222,860.582C777.15,861.609 775.587,862.302 773.532,862.659L734.404,868.287ZM751.02,838.807C746.107,838.807 742.02,840.46 738.759,843.765C735.498,847.07 733.779,851.805 733.6,857.969L766.564,853.279C766.207,849.259 764.733,845.842 762.142,843.028C759.551,840.214 755.844,838.807 751.02,838.807Z" style="fill:rgb(43,43,43);fill-rule:nonzero;"/>
        <path d="M810.382,864.535L810.382,892.273C809.667,892.541 808.729,892.787 807.568,893.01C806.407,893.233 805.111,893.345 803.682,893.345C800.913,893.345 798.925,892.831 797.719,891.804C796.513,890.777 795.91,889.057 795.91,886.645L795.91,817.501C795.91,815.982 796.334,814.799 797.183,813.95C798.032,813.101 799.215,812.454 800.734,812.007C803.503,811.024 806.809,810.354 810.65,809.997C814.491,809.64 818.109,809.461 821.504,809.461C833.117,809.461 841.716,811.918 847.299,816.831C852.882,821.744 855.674,828.4 855.674,836.797C855.674,845.194 852.882,851.917 847.299,856.964C841.716,862.011 833.385,864.535 822.308,864.535L810.382,864.535ZM821.37,852.877C827.534,852.877 832.38,851.537 835.909,848.857C839.438,846.177 841.202,842.157 841.202,836.797C841.202,831.437 839.527,827.506 836.177,825.005C832.827,822.504 828.025,821.253 821.772,821.253C819.717,821.253 817.685,821.342 815.675,821.521C813.665,821.7 811.856,821.923 810.248,822.191L810.248,852.877L821.37,852.877Z" style="fill:rgb(43,43,43);fill-rule:nonzero;"/>
        <path d="M924.282,811.203C924.907,811.024 925.845,810.823 927.096,810.6C928.347,810.377 929.642,810.265 930.982,810.265C933.573,810.265 935.516,810.756 936.811,811.739C938.106,812.722 938.754,814.464 938.754,816.965L938.754,892.273C938.039,892.541 937.079,892.787 935.873,893.01C934.667,893.233 933.394,893.345 932.054,893.345C929.285,893.345 927.297,892.831 926.091,891.804C924.885,890.777 924.282,889.057 924.282,886.645L924.282,857.299L886.896,857.299L886.896,892.273C886.181,892.541 885.243,892.787 884.082,893.01C882.921,893.233 881.625,893.345 880.196,893.345C877.427,893.345 875.439,892.831 874.233,891.804C873.027,890.777 872.424,889.057 872.424,886.645L872.424,811.203C873.139,811.024 874.099,810.823 875.305,810.6C876.511,810.377 877.784,810.265 879.124,810.265C881.715,810.265 883.658,810.756 884.953,811.739C886.248,812.722 886.896,814.464 886.896,816.965L886.896,845.641L924.282,845.641L924.282,811.203Z" style="fill:rgb(43,43,43);fill-rule:nonzero;"/>
        <path d="M975.202,864.535L975.202,892.273C974.487,892.541 973.549,892.787 972.388,893.01C971.227,893.233 969.931,893.345 968.502,893.345C965.733,893.345 963.745,892.831 962.539,891.804C961.333,890.777 960.73,889.057 960.73,886.645L960.73,817.501C960.73,815.982 961.154,814.799 962.003,813.95C962.852,813.101 964.035,812.454 965.554,812.007C968.323,811.024 971.629,810.354 975.47,809.997C979.311,809.64 982.929,809.461 986.324,809.461C997.937,809.461 1006.54,811.918 1012.12,816.831C1017.7,821.744 1020.49,828.4 1020.49,836.797C1020.49,845.194 1017.7,851.917 1012.12,856.964C1006.54,862.011 998.205,864.535 987.128,864.535L975.202,864.535ZM986.19,852.877C992.354,852.877 997.2,851.537 1000.73,848.857C1004.26,846.177 1006.02,842.157 1006.02,836.797C1006.02,831.437 1004.35,827.506 1001,825.005C997.647,822.504 992.845,821.253 986.592,821.253C984.537,821.253 982.505,821.342 980.495,821.521C978.485,821.7 976.676,821.923 975.068,822.191L975.068,852.877L986.19,852.877Z" style="fill:rgb(43,43,43);fill-rule:nonzero;"/>
    </g>
    <g>
        <g id="sablier" transform="matrix(0.806584,0,0,0.806584,96.7078,8.70782)">
            <path d="M252,399.67C252,387.941 250.118,376.289 246.426,365.157C237.576,338.762 232.834,310.513 232.834,281.166C232.834,133.713 352.547,14 500,14C647.453,14 767.166,133.713 767.166,281.166C767.166,313.435 761.432,344.376 750.929,373.024C748.45,379.731 747.18,386.825 747.18,393.976C747.138,433.602 747.138,566.796 747.138,606.178C747.138,613.239 748.394,620.245 750.846,626.867C761.416,655.536 767.166,686.519 767.166,718.834C767.166,866.287 647.453,986 500,986C352.547,986 232.834,866.287 232.834,718.834C232.834,688.273 237.977,658.904 247.443,631.545C250.417,622.997 251.935,614.01 251.935,604.96C252,563.869 252,445.994 252,399.67ZM445.808,505.388C448.295,504.785 450.046,502.559 450.046,500C450.046,497.441 448.295,495.215 445.808,494.612C350.457,470.442 279.823,383.987 279.823,281.166C279.823,159.647 378.481,60.989 500,60.989C621.519,60.989 720.177,159.647 720.177,281.166C720.177,383.671 649.977,469.909 555.072,494.387C552.49,495.025 550.677,497.341 550.677,500C550.677,502.659 552.49,504.975 555.072,505.613C649.977,530.091 720.177,616.329 720.177,718.834C720.177,840.353 621.519,939.011 500,939.011C378.481,939.011 279.823,840.353 279.823,718.834C279.823,616.013 350.457,529.558 445.808,505.388ZM295.372,452.865C292.602,449.536 288.043,448.3 283.971,449.772C279.899,451.245 277.185,455.111 277.185,459.441C277.138,481.75 277.138,511.923 277.138,535.342C277.138,540.461 280.317,545.042 285.113,546.832C289.908,548.623 295.312,547.246 298.666,543.38C308.882,531.577 320.156,520.72 332.307,510.905C335.631,508.262 337.569,504.247 337.568,500C337.568,495.753 335.631,491.738 332.307,489.095C318.86,478.233 306.487,466.095 295.372,452.865ZM722,462.504C722,457.862 719.108,453.712 714.753,452.105C710.399,450.498 705.504,451.774 702.489,455.303C692.06,467.494 680.517,478.701 668.048,488.808C664.643,491.525 662.66,495.644 662.66,500C662.66,504.356 664.643,508.475 668.048,511.192C679.947,520.837 691.002,531.483 701.084,543.001C704.34,546.742 709.576,548.069 714.221,546.33C718.866,544.592 721.944,540.153 721.944,535.194C722,512.932 722,484.307 722,462.504Z" style="fill:rgb(64,64,64);"/>
        </g>
        <g id="aiguille-heure" serif:id="aiguille heure" transform="matrix(0.806584,0,0,0.806584,96.7078,8.70782)">
            <path d="M488.61,269.776L488.608,269.774C488.608,269.774 497.725,260.657 508.539,249.843C531.898,226.484 557.58,205.571 585.187,187.43C585.189,187.429 585.19,187.428 585.191,187.427C587.637,185.82 590.875,186.152 592.945,188.221C595.014,190.291 595.346,193.529 593.738,195.975C593.738,195.976 593.737,195.977 593.736,195.978C575.594,223.585 554.681,249.268 531.323,272.627L516.11,287.839L516.11,639.624C516.111,659.856 520.896,678.804 529.226,695.035C532.816,702.063 539.27,707.195 546.925,709.109C554.541,711.015 561.82,713.832 568.591,717.463C572.176,719.427 575.24,722.217 577.53,725.603C580.483,729.809 585.299,733.837 591.407,736.966C593.747,738.162 595.787,739.871 597.374,741.967C597.4,741.947 597.4,741.947 597.4,741.947C600.387,745.953 605.091,748.313 610.088,748.313C610.088,748.37 610.088,748.37 610.088,748.37C620.549,748.37 630.612,746.388 640.014,742.732C645.622,738.1 652.963,733.253 661.121,730.934C668.306,725.543 674.816,719.047 680.471,711.655C683.535,707.721 688.759,706.167 693.475,707.786C698.191,709.406 701.358,713.842 701.358,718.829C701.381,718.831 701.381,718.832 701.381,718.834C701.381,829.98 611.145,920.215 500,920.215L499.349,920.214C388.503,919.863 298.619,829.763 298.619,718.834C298.619,718.832 298.619,718.831 298.619,718.829C298.62,713.833 301.793,709.389 306.518,707.767C311.243,706.144 316.476,707.701 319.547,711.642C325.536,719.484 332.489,726.317 340.191,731.893C344.902,735.327 350.976,736.289 356.518,734.481C358.217,733.941 360.015,733.429 361.919,732.954C365.66,732.004 369.577,731.98 373.329,732.884C377.495,733.851 383.793,733.394 393.16,730.492C395.352,729.816 397.641,729.503 399.934,729.565C407.539,729.795 415.928,730.489 425.176,731.751C433.836,732.924 442.565,730.15 448.958,724.192C470.262,704.255 483.889,673.767 483.89,639.624L483.89,281.166C483.89,276.72 485.694,272.692 488.61,269.776Z" style="fill:url(#_Linear1);"/>
        </g>
        <g id="indicateur" transform="matrix(1.08287,0,0,1.08287,-41.4365,-129.436)">
            <g transform="matrix(3.5,0,0,2,-1250,-179)">
                <path d="M502,176.5C502,175.672 501.616,175 501.143,175L498.857,175C498.384,175 498,175.672 498,176.5L498,179.5C498,180.328 498.384,181 498.857,181L501.143,181C501.616,181 502,180.328 502,179.5L502,176.5Z" style="fill:rgb(80,80,80);"/>
            </g>
            <g transform="matrix(2.14313e-16,3.5,-2,1.22465e-16,1016,-1413)">
                <path d="M502,176.5C502,175.672 501.616,175 501.143,175L498.857,175C498.384,175 498,175.672 498,176.5L498,179.5C498,180.328 498.384,181 498.857,181L501.143,181C501.616,181 502,180.328 502,179.5L502,176.5Z" style="fill:rgb(80,80,80);"/>
            </g>
            <g transform="matrix(2.14313e-16,-3.5,2,1.22465e-16,-16,2087)">
                <path d="M502,176.5C502,175.672 501.616,175 501.143,175L498.857,175C498.384,175 498,175.672 498,176.5L498,179.5C498,180.328 498.384,181 498.857,181L501.143,181C501.616,181 502,180.328 502,179.5L502,176.5Z" style="fill:rgb(80,80,80);"/>
            </g>
        </g>
    </g>
    <defs>
        <linearGradient id="_Linear1" x1="0" y1="0" x2="1" y2="0" gradientUnits="userSpaceOnUse" gradientTransform="matrix(402.762,0,0,733.802,298.619,553.314)"><stop offset="0" style="stop-color:rgb(119,119,119);stop-opacity:1"/><stop offset="1" style="stop-color:rgb(41,41,41);stop-opacity:1"/></linearGradient>
    </defs>
</svg>
